<svg xmlns="http://www.w3.org/2000/svg" data-name="Layer 1" viewBox="0 0 128 128"><path d="m121.15 86.022-.094-.001q-.128 0-.256.008a3.983 3.983 0 0 0-.987.189 5.102 5.102 0 0 0-2.437 1.664 38.46 38.46 0 0 1-15.606 11.422 55.12 55.12 0 0 1-20.466 4.004 57.883 57.883 0 0 1-17.324-2.736c-19.753-6.198-33.681-18.95-41.398-37.904a48.065 48.065 0 0 1-2.293-30.534c.458-1.806 1.108-3.618 1.796-5.535.336-.937.673-1.878.994-2.833a4 4 0 0 0-5.766-4.754C12.32 21.848 4.81 35.886 3.626 38.865-.778 49.953-1.172 61.938 2.454 74.488c4.9 16.954 15.276 30.68 30.84 40.798a61.421 61.421 0 0 0 20.852 9.051A75.013 75.013 0 0 0 69.616 126a67.113 67.113 0 0 0 13.135-1.289c18.698-3.74 32.639-14.448 41.433-31.827a11.553 11.553 0 0 0 .466-1.075l.058-.148a4.001 4.001 0 0 0-3.558-5.639zm-.535 5.056c-8.178 16.16-20.997 26.18-38.649 29.71A62.838 62.838 0 0 1 69.616 122a70.73 70.73 0 0 1-14.642-1.576 57.946 57.946 0 0 1-19.5-8.492C21.173 102.634 11.1 89.999 6.298 73.377 3.093 62.29 3.023 51.22 7.343 40.341c1.362-3.427 8.407-15.841 11.945-17.85-.987 2.935-2.137 5.744-2.876 8.659a51.961 51.961 0 0 0 2.466 33.026c8.299 20.386 23.244 33.73 43.904 40.213a61.675 61.675 0 0 0 18.523 2.92 58.917 58.917 0 0 0 21.945-4.289 42.291 42.291 0 0 0 17.213-12.595 1.097 1.097 0 0 1 .593-.404c-.146.353-.269.717-.44 1.057z"/><path d="M124.05 55.742H124l-.104.001a3.981 3.981 0 0 0-2.315.812l-.004.002v.001q-.103.078-.2.163h-.001l-.004.003-.001.002-.003.002-.002.002-.002.002-.003.002v.001l-.005.004q-.075.066-.146.134c-.672.653-1.335 1.333-1.976 1.99a43.295 43.295 0 0 1-4.097 3.866 31.726 31.726 0 0 1-20.07 6.922 40.15 40.15 0 0 1-5.753-.429c-14.964-2.175-26.39-10.04-33.959-23.375-4.989-8.79-6.19-17.952-3.572-27.232.315-1.116.756-2.256 1.224-3.463.235-.607.47-1.215.692-1.826a4 4 0 0 0-1.438-4.627 4.184 4.184 0 0 0-2.42-.768 3.951 3.951 0 0 0-2.545.903c-9.776 8.183-13.82 26.428-11.465 38.335 2.176 10.997 7.929 20.577 17.099 28.474a49.919 49.919 0 0 0 20.547 11.003 50.656 50.656 0 0 0 12.159 1.474 54.388 54.388 0 0 0 10.793-1.103c14.252-2.893 24.58-11.089 30.699-24.36.218-.472.392-.928.507-1.23l.036-.093a4.001 4.001 0 0 0-3.62-5.592zm-.556 5.24c-5.592 12.13-14.92 19.488-27.862 22.115a50.221 50.221 0 0 1-9.998 1.023 46.503 46.503 0 0 1-11.197-1.357 45.86 45.86 0 0 1-18.898-10.15c-8.11-6.986-13.68-15.584-15.785-26.22-2.016-10.187 1.33-27.143 10.108-34.492l.078.056c-.676 1.855-1.473 3.675-2.008 5.571-3.008 10.661-1.429 20.83 3.944 30.294C60.06 62.244 72.455 70.813 88.738 73.18a43.981 43.981 0 0 0 6.328.47 35.583 35.583 0 0 0 22.543-7.777 84.621 84.621 0 0 0 6.388-6.131c-.103.257-.28.76-.503 1.24z"/><path d="M98.43 54.816c.439 0 .88-.009 1.323-.027 10.226-.42 18.045-5.01 23.239-13.64.22-.366.387-.707.521-.98l.076-.154a4 4 0 0 0-3.433-5.93h-.072c-.041 0-.082 0-.123.002a3.992 3.992 0 0 0-2.745 1.208l-.016.017a15.167 15.167 0 0 1-7.568 4.447 19.524 19.524 0 0 1-4.554.506 27.446 27.446 0 0 1-3.247-.202C93.081 39.03 86.488 35.083 81.677 28c-3.46-5.095-4.808-10.11-4.12-15.334a28.793 28.793 0 0 1 .84-3.672c.185-.68.37-1.362.537-2.05a4 4 0 0 0-6.556-3.923C66.245 8.517 63.7 21.285 65.52 29.03c2.98 12.675 16.104 25.786 32.91 25.786zM75.047 6a59.466 59.466 0 0 0-1.456 6.144c-.878 6.672 1.088 12.67 4.777 18.103 5.541 8.159 13.301 12.643 22.994 13.789a31.659 31.659 0 0 0 3.716.23 23.633 23.633 0 0 0 5.476-.614 19.161 19.161 0 0 0 9.528-5.567c-.171.334-.324.68-.518 1-4.555 7.571-11.207 11.347-19.975 11.708a28.25 28.25 0 0 1-1.159.023c-14.486 0-26.309-11.19-29.015-22.701-1.643-6.989.96-17.928 5.632-22.115z"/></svg>