<svg xmlns="http://www.w3.org/2000/svg" fill-rule="evenodd" stroke-linejoin="round" stroke-miterlimit="2" clip-rule="evenodd" viewBox="0 0 24 24"><path fill="none" d="M0 0h24v24H0z"/><path fill="#2c2c2c" d="M21.909 2.991a.9.9 0 0 0-.9-.9H2.991a.9.9 0 0 0-.9.9v18.018a.9.9 0 0 0 .9.9h18.018a.9.9 0 0 0 .9-.9V2.991zm-18.018.9v16.218h16.218V3.891H3.891zm13.421 6.574c-.405-.354-1.086-.627-1.766-.649-.693-.023-1.362.208-1.799.715-.293.34-.502.813-.502 1.469 0 1.122.639 1.615 1.49 1.934.221.083.459.152.684.237.189.072.4.132.4.403 0 .149-.006.264-.07.334-.095.104-.255.079-.397.067-.232-.021-.469-.078-.571-.179a.898.898 0 0 0-1.272 0 .898.898 0 0 0 0 1.272c.31.311.978.638 1.686.7.704.062 1.414-.133 1.882-.645.311-.34.542-.832.542-1.549 0-1.199-.647-1.719-1.47-2.05-.233-.094-.484-.168-.72-.253a2.397 2.397 0 0 1-.225-.09c-.077-.036-.159-.071-.159-.181 0-.127.008-.228.065-.294.088-.101.238-.096.377-.091.243.008.495.078.639.204a.901.901 0 0 0 1.186-1.354zM7.239 15.861V8.139a.9.9 0 0 1 .793-.894c1.23-.147 2.458-.098 3.381.258 1.151.446 1.916 1.307 1.916 2.781 0 1.427-.932 2.416-2.165 2.906a5.074 5.074 0 0 1-2.125.335v2.336a.9.9 0 0 1-1.8 0zm1.8-4.131c.464.047.995-.028 1.459-.212.548-.218 1.031-.601 1.031-1.234 0-.739-.502-1.072-1.149-1.216a5.316 5.316 0 0 0-1.341-.099v2.761z"/></svg>